<svg width="16" height="16" viewBox="0 0 16 16" fill="none" xmlns="http://www.w3.org/2000/svg">
<path fill-rule="evenodd" clip-rule="evenodd" d="M7.9998 1.86672C4.61246 1.86672 1.86647 4.6127 1.86647 8.00005C1.86647 11.3874 4.61246 14.1334 7.9998 14.1334C11.3872 14.1334 14.1331 11.3874 14.1331 8.00005C14.1331 4.6127 11.3872 1.86672 7.9998 1.86672ZM0.799805 8.00005C0.799805 4.0236 4.02335 0.800049 7.9998 0.800049C11.9763 0.800049 15.1998 4.0236 15.1998 8.00005C15.1998 11.9765 11.9763 15.2 7.9998 15.2C4.02335 15.2 0.799805 11.9765 0.799805 8.00005Z" fill="#4D4D4D"/>
<path fill-rule="evenodd" clip-rule="evenodd" d="M7.9998 7.56991C8.29435 7.56991 8.53314 7.80869 8.53314 8.10324L8.53315 10.7953C8.53315 11.0898 8.29437 11.3286 7.99981 11.3286C7.70526 11.3286 7.46648 11.0898 7.46648 10.7953L7.46647 8.10324C7.46647 7.80869 7.70525 7.56991 7.9998 7.56991Z" fill="#4D4D4D"/>
<path fill-rule="evenodd" clip-rule="evenodd" d="M8.60303 5.43814C8.60303 5.77128 8.33296 6.04134 7.99982 6.04134C7.66668 6.04134 7.39661 5.77128 7.39661 5.43814C7.39661 5.105 7.66668 4.83493 7.99982 4.83493C8.33296 4.83493 8.60303 5.105 8.60303 5.43814Z" fill="#4D4D4D"/>
</svg>
