<svg width="14" height="12" viewBox="0 0 14 12" fill="none" xmlns="http://www.w3.org/2000/svg">
<path fill-rule="evenodd" clip-rule="evenodd" d="M0.623006 7.93363C0.831286 7.72535 1.16897 7.72535 1.37725 7.93363L3.641 10.1974L5.90474 7.93363C6.11302 7.72535 6.45071 7.72535 6.65899 7.93363C6.86727 8.14191 6.86727 8.4796 6.65899 8.68788L4.01812 11.3287C3.80984 11.537 3.47215 11.537 3.26387 11.3287L0.623006 8.68788C0.414727 8.4796 0.414727 8.14191 0.623006 7.93363Z" fill="#4D4D4D"/>
<path fill-rule="evenodd" clip-rule="evenodd" d="M3.64095 0.515031C3.9355 0.515031 4.17428 0.753812 4.17428 1.04836L4.17428 10.9516C4.17428 11.2462 3.9355 11.485 3.64095 11.485C3.3464 11.485 3.10762 11.2462 3.10762 10.9516L3.10762 1.04836C3.10762 0.753812 3.3464 0.515031 3.64095 0.515031Z" fill="#4D4D4D"/>
<path fill-rule="evenodd" clip-rule="evenodd" d="M13.3772 4.06634C13.169 4.27462 12.8313 4.27462 12.623 4.06634L10.3592 1.80259L8.0955 4.06634C7.88722 4.27462 7.54953 4.27462 7.34126 4.06634C7.13298 3.85806 7.13298 3.52037 7.34126 3.31209L9.98212 0.671224C10.1904 0.462945 10.5281 0.462945 10.7364 0.671224L13.3772 3.31209C13.5855 3.52037 13.5855 3.85806 13.3772 4.06634Z" fill="#4D4D4D"/>
<path fill-rule="evenodd" clip-rule="evenodd" d="M10.3593 11.4849C10.0647 11.4849 9.82596 11.2462 9.82596 10.9516L9.82596 1.04835C9.82596 0.7538 10.0647 0.515019 10.3593 0.515019C10.6538 0.515019 10.8926 0.7538 10.8926 1.04835L10.8926 10.9516C10.8926 11.2462 10.6538 11.4849 10.3593 11.4849Z" fill="#4D4D4D"/>
</svg>
